<svg t="1701020643510" class="icon" viewBox="0 0 1024 1024" version="1.1" xmlns="http://www.w3.org/2000/svg" p-id="5873" width="200" height="200"><path d="M684.9 928h-346c-16.7 0-32.7-6.1-46.2-17.7-11.6-9.9-21.1-23.9-27.5-40.3-12.1-31.1-12.2-68.3-0.2-99.5l56.2-146.3C347.7 555 399.6 512 456.7 512h110.4c57 0 108.9 43 135.5 112.2l56.2 146.3c12 31.2 11.9 68.4-0.3 99.5-6.4 16.4-15.9 30.4-27.5 40.3-13.5 11.6-29.4 17.7-46.1 17.7zM456.7 576c-29.4 0-59.2 27.9-75.8 71.1l-56.2 146.3c-6.3 16.5-6.3 36.9 0.1 53.3 4.7 11.9 11 17.3 14 17.3h346c3 0 9.4-5.4 14-17.3 6.4-16.4 6.4-36.8 0.1-53.3l-56.2-146.3c-16.6-43.2-46.3-71.1-75.8-71.1H456.7zM511.7 160c34.2 0 66.3 13.3 90.5 37.5 24.2 24.2 37.5 56.3 37.5 90.5s-13.3 66.3-37.5 90.5C578 402.7 545.9 416 511.7 416s-66.3-13.3-90.5-37.5c-24.2-24.2-37.5-56.3-37.5-90.5s13.3-66.3 37.5-90.5c24.2-24.2 56.3-37.5 90.5-37.5m0-64c-106 0-192 86-192 192s86 192 192 192 192-86 192-192-85.9-192-192-192z" fill="#231815" p-id="5874"></path></svg>