<svg t="1641650171140" class="icon" viewBox="0 0 1024 1024" version="1.1" xmlns="http://www.w3.org/2000/svg" p-id="4812" width="16" height="16"><path d="M641.4 586.2s-63.1-20.5-86.7 11c0 0-89.7-85.2-179.3-26.9 0 0 20.4-136.7-14.2-267.3 0 0 9.4-26.7 31.5-12.6s110.1 33 132.1-28.3c24.8-30.1 31.1-95.7-56.6-127.3s-182.4 50.5-189.5 68.7c-7.1 18.2-142.5 230-118.9 447.1 0 0-48.8 67.6 12.6 96 61.3 28.3 75.5 9.4 75.5 9.4s15.7 89.7 196.6 81.8c0 0 7.3 36.9 72.1 48.7l77.3-42.4 56.7-240.7-9.2-17.2z" fill="#515151" p-id="4813"></path><path d="M743.8 578.6H643.2s-20.1 239.2-142.1 319.7h90.6c6.3 0 12.1-3.5 15-9l152.2-285.6c5.9-11.4-2.3-25.1-15.1-25.1zM378.3 544.6s-64.7 41.1-71.2 82.3c0 0 5.1-15.4 68.4-56.6M501.1 803s-3.2 33.6-39.6 59.3c-14.1-12.5-16.8-24.5-16.8-24.5 27.9-2.8 56.4-34.8 56.4-34.8z" fill="#515151" p-id="4814"></path></svg>