<svg t="1641651843794" class="icon" viewBox="0 0 1024 1024" version="1.1" xmlns="http://www.w3.org/2000/svg" p-id="15331" width="16" height="16"><path d="M558.4 570.4c-8 0-14.4-5.6-16-12.8-28-146.4 4-284 89.6-388.8C716.8 64 845.6 5.6 994.4 4c8 0 14.4 5.6 16 12.8 28 145.6-3.2 284-88.8 388.8-85.6 104.8-214.4 163.2-363.2 164.8z m422.4-534.4c-132.8 4.8-248 58.4-324.8 152.8-76.8 94.4-106.4 217.6-84.8 348.8 132.8-4.8 248-58.4 324.8-152.8 76.8-93.6 107.2-216.8 84.8-348.8zM349.6 585.6c-96.8 0-183.2-34.4-248-98.4-72-72-106.4-173.6-96.8-285.6 0.8-8 6.4-13.6 14.4-14.4 112-10.4 212.8 24 285.6 96.8 72 72 106.4 173.6 96.8 285.6-0.8 8-6.4 13.6-14.4 14.4-12 0.8-24.8 1.6-37.6 1.6z m-312.8-368c-5.6 96.8 25.6 184 88 247.2 62.4 62.4 149.6 93.6 246.4 88 5.6-96.8-25.6-184-88.8-247.2-61.6-62.4-148.8-93.6-245.6-88z" p-id="15332"></path><path d="M384 576.8c-3.2 0-6.4-1.6-7.2-4.8C328 452.8 255.2 377.6 160 347.2c-4-1.6-6.4-5.6-5.6-10.4 1.6-4 5.6-6.4 10.4-5.6 100 32 176.8 110.4 227.2 233.6 1.6 4 0 8.8-4 10.4-1.6 1.6-2.4 1.6-4 1.6z" p-id="15333"></path><path d="M451.2 1020c-9.6-0.8-16-8-16-16.8v-8.8c1.6-43.2 3.2-251.2-66.4-420-3.2-8 0.8-17.6 8.8-20.8 8-3.2 17.6 0.8 20.8 8.8 32 78.4 49.6 163.2 59.2 237.6 17.6-90.4 44.8-176 82.4-254.4 4-8 13.6-11.2 21.6-8 8 4 11.2 13.6 8 21.6-60.8 128-94.4 273.6-101.6 432.8 0 7.2-0.8 11.2-0.8 12 0 9.6-7.2 16-16 16z" p-id="15334"></path><path d="M555.2 560.8c-0.8 0-2.4 0-3.2-0.8-4-1.6-5.6-6.4-4-10.4 111.2-235.2 273.6-333.6 275.2-334.4 4-2.4 8.8-0.8 11.2 3.2 2.4 4 0.8 8.8-3.2 11.2-1.6 0.8-160 96.8-268.8 327.2-1.6 2.4-4 4-7.2 4z" p-id="15335"></path></svg>