<svg t="1641651945537" class="icon" viewBox="0 0 1024 1024" version="1.1" xmlns="http://www.w3.org/2000/svg" p-id="18841" width="16" height="16"><path d="M778.659556 200.128637a827.711261 827.711261 0 0 0-4.266553-85.331058 31.145836 31.145836 0 0 0-17.492867-24.319352 33.705768 33.705768 0 0 0-30.719181 0l-101.117303 47.358737-85.331058-123.303378A35.412389 35.412389 0 0 0 512 0.027306a34.985734 34.985734 0 0 0-27.732594 11.946348L387.843311 128.023893 298.672355 90.051572a32.425802 32.425802 0 0 0-12.799658-4.266553 33.279113 33.279113 0 0 0-37.11901 28.159249 817.471534 817.471534 0 0 0-4.266553 85.331058c0 121.170102 23.466041 362.230341 235.940375 387.829658v403.615903a33.279113 33.279113 0 0 0 66.558225 0v-403.189248c208.634436-29.01256 231.673822-267.086211 231.673822-387.403002z m-466.334231 0v-34.559079L384.003413 195.862084a34.559078 34.559078 0 0 0 39.252287-8.959761l85.331058-101.543959 76.797952 110.930375a33.705768 33.705768 0 0 0 42.665529 11.093037l82.771126-39.678941v32.425802c0 127.996587-31.145836 325.964641-199.674676 326.391296S312.75198 328.978534 312.325325 200.128637z" fill="#333333" p-id="18842"></path><path d="M913.482627 634.890376a31.999147 31.999147 0 0 0-17.492867-16.212901 459.081091 459.081091 0 0 0-117.75686-17.066211 243.193515 243.193515 0 0 0-103.25058 20.906109 138.236314 138.236314 0 0 0-77.651262 127.996587 85.331058 85.331058 0 0 0 14.932935 52.051945 159.569078 159.569078 0 0 0 106.237167 42.665529 154.449215 154.449215 0 0 0 67.838191-16.212901 313.591638 313.591638 0 0 0 131.409829-170.662116 27.732594 27.732594 0 0 0-4.266553-23.466041z m-159.995733 136.956348a85.331058 85.331058 0 0 1-91.304232-10.239727 82.771126 82.771126 0 0 1 40.532252-81.49116 189.008293 189.008293 0 0 1 73.38471-14.079625 377.163276 377.163276 0 0 1 62.718328 5.973174 221.86075 221.86075 0 0 1-85.331058 99.837338zM356.270819 630.623823a250.019999 250.019999 0 0 0-105.383856-20.052798 478.280579 478.280579 0 0 0-120.316792 16.212901 31.999147 31.999147 0 0 0-20.052798 16.212901 30.719181 30.719181 0 0 0 0 25.172662 306.765153 306.765153 0 0 0 133.543105 163.835631 163.835631 163.835631 0 0 0 68.691502 15.35959 170.662116 170.662116 0 0 0 108.370443-40.105597 31.572491 31.572491 0 0 0 11.519693-17.066211 146.342764 146.342764 0 0 0 3.839898-34.132424 133.969761 133.969761 0 0 0-80.211195-125.436655z m-85.331057 143.782833a209.914402 209.914402 0 0 1-85.331058-93.864164 349.004027 349.004027 0 0 1 63.571638-5.546519 188.581638 188.581638 0 0 1 76.797952 13.65297 69.544812 69.544812 0 0 1 42.665529 67.838191 63.998293 63.998293 0 0 1 0 9.386416 98.557372 98.557372 0 0 1-56.318498 17.919522 96.850751 96.850751 0 0 1-39.678942-9.386416z" fill="#333333" p-id="18843"></path></svg>