<svg t="1641651377493" class="icon" viewBox="0 0 1024 1024" version="1.1" xmlns="http://www.w3.org/2000/svg" p-id="2113" width="16" height="16"><path d="M512 0a512 512 0 1 1 0 1024A512 512 0 0 1 512 0z m0 48.786286a463.213714 463.213714 0 1 0 0 926.427428A463.213714 463.213714 0 0 0 512 48.786286z" fill="#333333" p-id="2114"></path><path d="M512 219.428571a54.857143 54.857143 0 0 1 54.857143 54.857143v182.857143h182.857143a54.857143 54.857143 0 1 1 0 109.714286h-182.857143v182.857143a54.857143 54.857143 0 1 1-109.714286 0l-0.073143-182.857143H274.285714a54.857143 54.857143 0 0 1 0-109.714286h182.857143v-182.857143A54.857143 54.857143 0 0 1 512 219.428571z" fill="#333333" p-id="2115"></path></svg>