<svg t="1641651142566" class="icon" viewBox="0 0 1024 1024" version="1.1" xmlns="http://www.w3.org/2000/svg" p-id="10035" width="16" height="16"><path d="M585.02989767 352.8217165zM692.98298067 333.92478532zM655.8814407 315.79187053c47.61745735 0 86.22675403-38.60640062 86.22675403-86.22892663 0-47.61600896-38.60640062-86.22385724-86.22747823-86.22385724-47.62397512 0-86.2318234 38.60640062-86.23182339 86.22385724-0.00506937 47.62252673 38.60784901 86.22892661 86.23182339 86.22892662zM655.8814407 315.79187053z" p-id="10036"></path><path d="M797.71850239 290.9616769c-49.51555085 69.34885571-115.81340755 77.37936351-187.15450158 35.02891729-4.85712103-2.88226342-26.40312801-14.75313422-31.17334619-17.58832559-114.76913005-68.12787647-229.40138842-41.41262413-306.27744265 66.24643873-32.67096486 45.79250624 42.88344755 89.19229932 75.1872506 43.93641541 39.72019953-55.62044569 90.23005906-71.7183953 145.46523729-54.09965346-28.284565 49.09262593-53.0104765 97.88833495-87.90397123 167.21836157-34.90073599 69.3293024-111.96073321 124.69266199-186.00014695 81.3877379C166.43252471 581.87042561 118.25237469 658.62119531 171.51921312 689.74964203c101.08489529 59.08205902 219.60965807 22.80247113 280.11619336-53.99537062 2.09869375 1.12031668 4.31832613 2.13635123 6.74797258 2.98509861 49.43299318 17.22188728 114.22888675 63.06798332 133.96949591 79.31945969 19.73698818 16.24858029 53.65427844 99.02748073 73.78739627 140.61897921 24.42971879 50.46858033 103.32697775 13.7117535 78.80383908-36.97191026-22.8234721-47.18801467-61.14454295-141.3677882-91.02811267-165.19715611-23.97130824-19.11129042-70.51552096-54.67683004-109.99673856-74.85557298 26.71163134-51.73373484 54.52112999-102.90260443 83.79565919-153.194483 93.31002593 28.58872387 182.00191203-5.09103358 245.17128068-93.57218143 32.69486334-45.78526428-42.84361747-89.18722994-75.16842076-43.92482824zM797.71850239 290.9616769z" p-id="10037"></path></svg>