<svg t="1641651678729" class="icon" viewBox="0 0 1024 1024" version="1.1" xmlns="http://www.w3.org/2000/svg" p-id="6336" width="16" height="16"><path d="M545.792 5.12c-232.96 3.072-418.304 199.68-408.576 431.104-0.512 3.584-0.512 4.096-0.512 32.768l-92.16 150.016c-10.752 17.92 2.048 39.936 22.528 39.936h70.144v115.712c0 50.688 40.96 91.648 91.648 91.648h152.064v125.952c0 14.848 11.776 26.112 26.112 26.112h290.816c14.848 0 26.112-11.776 26.112-26.112 0-112.128 43.008-203.776 111.616-268.288 83.968-78.336 132.096-188.928 132.096-303.616C967.68 188.416 777.728 1.536 545.792 5.12z m253.44 680.448c-76.8 72.192-122.368 172.544-127.488 280.064H433.152V839.68c0-14.848-11.776-26.112-26.112-26.112H228.352c-21.504 0-38.912-17.408-38.912-38.912v-141.824c0-14.848-11.776-26.112-26.112-26.112h-49.152C191.488 480.256 189.44 486.912 189.44 476.16v-30.208c2.048-10.752-18.432-157.184 106.496-282.112 228.352-227.84 619.008-66.56 619.008 256 0 100.864-41.984 197.12-115.712 265.728z" p-id="6337"></path><path d="M817.664 246.784C718.848 95.744 514.048 56.32 366.592 163.328c-30.72 23.04-76.288 84.48-26.624 157.184 67.584 98.304 157.184 46.08 176.64 54.272 3.584 4.608 2.56 18.432 2.56 23.04-0.512 11.776-1.024 26.624 4.608 41.472 23.552 62.976 110.592 47.104 119.808 47.616 1.536 3.584 4.096 10.752 6.144 15.872 40.448 117.76 161.792 119.296 194.048 44.544 42.496-97.792 32.768-210.432-26.112-300.544z m-22.528 279.552c-4.608 10.752-15.36 18.944-27.136 18.944-31.744 0-55.296-19.968-68.608-59.392-11.776-33.792-23.04-55.808-73.216-50.688-22.528 2.56-48.128-1.024-53.248-14.336-2.56-7.168-1.024-19.456-1.024-32.256 0-27.136-10.752-49.152-29.696-59.904-51.2-28.16-107.008 37.888-158.72-37.888-31.744-46.592 6.656-78.848 14.336-84.992 122.88-89.088 293.376-56.32 375.808 70.144 49.664 75.264 56.832 168.96 21.504 250.368z" p-id="6338"></path></svg>