<svg t="1641799425787" class="icon" viewBox="0 0 1026 1024" version="1.1" xmlns="http://www.w3.org/2000/svg" p-id="3342" width="16" height="16">
<path d="M1024 972.803c0 13.022-5.090 26.018-15.094 36.021-18.164 18.113-46.050 20.262-66.338 5.091l-288.326-213.059-166.983 166.983c-16.297 16.297-41.778 19.52-61.989 7.854-12.613-7.982-112.823-76.698-75.011-229.484 0.307-2.533 0.537-5.27 0.793-8.212 0.537-6.268 1.177-13.278 2.405-20.876 5.245-32.338-20.722-89.517-63.038-139.149-40.499-47.56-87.751-78.285-120.345-78.285-7.573 0-15.632 0.179-23.537 0.358-30.623 1.279-77.697 3.224-112.874-31.98-41.701-41.65-45.053-107.553-7.855-153.271 0.742-0.921 1.534-1.765 2.379-2.584v0.025c24.048-24.585 275.815-276.609 278.476-279.244 21.695-21.695 50.526-33.642 81.177-33.693 30.675-0.026 59.456 11.896 81.1 33.54 35.049 35.024 33.054 82.353 31.724 113.565-0.154 7.394-0.333 15.478-0.333 23.026 0 30.828 21.592 67.694 60.761 103.715 55.26 50.809 126.638 82.097 158.618 79.411 10.259-1.126 28.372-3.224 30.93-3.607 149.612-36.891 217.843 63.114 225.109 74.627 12.485 20.697 9.389 46.357-7.24 63.012l-178.394 178.394c-10.003 10.003-26.172 10.003-36.176 0s-10.003-26.172 0-36.176l178.394-178.394c-5.090-7.854-54.646-80.102-171.767-51.32-2.354 0.513-23.562 3.044-35.97 4.375-51.116 4.299-136.027-35.587-198.119-92.689-35.254-32.44-77.287-83.274-77.288-141.349 0-7.905 0.179-16.399 0.358-24.662 1.356-32.414 0.972-58.049-16.783-75.779-11.973-11.973-27.886-18.548-44.848-18.548-17.013 0.025-33.003 6.677-45.053 18.702-2.635 2.635-270.622 271.006-278.22 278.911-19.725 24.279-17.883 60.71 5.219 83.786 17.908 17.908 43.492 18.318 75.088 17.013 8.801-0.205 17.243-0.384 25.149-0.385 48.377 0 107.937 35.996 159.283 96.271 42.136 49.478 83.811 122.98 74.6 180.491-1.023 6.294-1.509 12.051-1.944 17.192-0.281 3.326-0.563 6.421-0.921 9.312-0.077 2.456-0.537 4.861-1.305 7.189-29.037 117.761 43.44 167.597 51.807 172.893l182.026-182.743c8.954-8.954 23.102-10.029 33.31-2.482l306.158 226.235-174.531-238.617c-8.366-11.436-5.807-27.425 5.603-35.74s27.4-5.807 35.715 5.603l174.121 238.822c6.677 8.954 9.978 19.418 9.978 29.907z" p-id="3343">
</path>
</svg>